<svg width="20" height="20" viewBox="0 0 20 20" fill="none" xmlns="http://www.w3.org/2000/svg">
<path opacity="0.5" d="M15.655 14.0692C16.2883 13.355 16.6667 12.4467 16.6667 11.4583C16.6667 9.15749 14.615 7.29166 12.0833 7.29166C9.55167 7.29166 7.5 9.15749 7.5 11.4583C7.5 13.7592 9.55167 15.625 12.0833 15.625C12.7108 15.6255 13.3327 15.5079 13.9167 15.2783L16.25 16.25L15.655 14.0692Z" fill="black"/>
<path fill-rule="evenodd" clip-rule="evenodd" d="M7.91667 3.125C5.0975 3.125 2.70834 5.21583 2.70834 7.91667C2.7107 8.91569 3.0442 9.88574 3.65667 10.675L3.14667 12.5442C3.01334 13.0358 3.52 13.4817 3.99 13.2858L6.32334 12.3133C6.47639 12.2496 6.59784 12.1276 6.66098 11.9743C6.72412 11.821 6.72376 11.6489 6.66 11.4958C6.59624 11.3428 6.47429 11.2213 6.32098 11.1582C6.16767 11.0951 5.99555 11.0954 5.8425 11.1592L4.68917 11.64L4.9475 10.6925C4.97488 10.5923 4.97687 10.4869 4.9533 10.3858C4.92973 10.2847 4.88134 10.1911 4.8125 10.1133C4.2725 9.50417 3.95834 8.74167 3.95834 7.91667C3.95834 6.015 5.67334 4.375 7.91667 4.375C9.65 4.375 11.0758 5.36083 11.6283 6.685C9.01167 6.89583 6.875 8.90417 6.875 11.4583C6.875 14.1592 9.26417 16.25 12.0833 16.25C12.7217 16.25 13.3358 16.1442 13.9033 15.95L16.01 16.8267C16.48 17.0233 16.9867 16.5767 16.8533 16.085L16.3433 14.2167C16.9558 13.4274 17.2893 12.4574 17.2917 11.4583C17.2917 9.04417 15.3833 7.11833 12.9658 6.73583C12.3875 4.6275 10.3125 3.125 7.91667 3.125ZM8.125 11.4583C8.125 9.5575 9.84 7.91667 12.0833 7.91667C14.3267 7.91667 16.0417 9.5575 16.0417 11.4583C16.0417 12.2825 15.7275 13.0458 15.1875 13.655C15.1187 13.7327 15.0703 13.8264 15.0467 13.9275C15.0231 14.0286 15.0251 14.134 15.0525 14.2342L15.3108 15.1817L14.1575 14.7008C14.007 14.6384 13.838 14.6372 13.6867 14.6975C13.1762 14.8989 12.6321 15.0016 12.0833 15C9.84 15 8.125 13.36 8.125 11.4583Z" fill="black"/>
</svg>
